<svg data-v-4ab2ab60="" fill="#fff" height="512" viewBox="0 0 511.448 511.448" width="512" xmlns="http://www.w3.org/2000/svg"
    class="icon__source">
    <path
        d="M232.861 179.527c20.32-20.319 55.196-5.749 55.196 22.863 0 11.598 9.402 21 21 21s21-9.402 21-21c0-33.695-22.543-62.207-53.333-71.293v-14.04c0-11.598-9.402-21-21-21s-21 9.402-21 21v14.006c-35.766 10.476-58.846 46.31-50.688 83.984 5.021 23.19 21.079 42.444 42.954 51.505l41.396 17.146c19.145 7.931 24.876 32.504 11.024 47.369-19.873 21.297-56.02 7.347-56.02-22.011 0-11.598-9.402-21-21-21s-21 9.402-21 21c0 32.811 21.686 62.059 53.333 71.278v14.056c0 11.598 9.402 21 21 21s21-9.402 21-21v-14.085a73.686 73.686 0 0031.288-18.414c36.503-36.108 23.434-97.533-23.554-116.996l-41.396-17.146c-19.361-8.02-25.176-33.219-10.2-48.222z">
    </path>
    <path
        d="M436.507 74.94c-99.913-99.913-261.64-99.927-361.567 0-99.913 99.913-99.928 261.64 0 361.567 99.913 99.913 261.639 99.928 361.567 0 99.914-99.911 99.93-261.639 0-361.567zM255.724 469.391c-117.816 0-213.667-95.851-213.667-213.666S137.908 42.058 255.724 42.058s213.667 95.851 213.667 213.667-95.851 213.666-213.667 213.666z">
    </path>
</svg>